<svg width="32.5" height="28" viewBox="-1 0 24 24" fill="none" xmlns="http://www.w3.org/2000/svg">
<path fill-rule="evenodd" clip-rule="evenodd" d="M8.44354 2.43453C8.48024 2.39852 8.53395 2.375 8.59383 2.375H13.4062C13.466 2.375 13.5197 2.39852 13.5564 2.43453C13.5925 2.46992 13.6092 2.51387 13.6092 2.55563V5.09752H8.39075V2.55563C8.39075 2.51387 8.40748 2.46992 8.44354 2.43453ZM6.39075 5.09752V2.55563C6.39075 1.97114 6.62753 1.4145 7.04271 1.00706C7.45725 0.600256 8.01555 0.375 8.59383 0.375H13.4062C13.9844 0.375 14.5427 0.600256 14.9573 1.00706C15.3725 1.4145 15.6092 1.97114 15.6092 2.55563V5.09752H19.409H19.4305H20.6243C21.1766 5.09752 21.6243 5.54523 21.6243 6.09752C21.6243 6.6498 21.1766 7.09752 20.6243 7.09752H20.3395L19.2174 20.3112C19.2052 21.192 18.8432 22.0304 18.2134 22.6484C17.5733 23.2767 16.709 23.6263 15.8116 23.6263H6.18697C5.28961 23.6263 4.4253 23.2767 3.78514 22.6484C3.15533 22.0304 2.79336 21.192 2.78113 20.3112L1.65905 7.09752H1.375C0.822715 7.09752 0.375 6.6498 0.375 6.09752C0.375 5.54523 0.822715 5.09752 1.375 5.09752H2.56812H2.58958H6.39075ZM4.77722 20.1804L3.66624 7.09752H18.3323L17.2214 20.1804C17.219 20.2086 17.2178 20.2368 17.2178 20.265C17.2178 20.6199 17.0743 20.9642 16.8126 21.221C16.5503 21.4784 16.1906 21.6263 15.8116 21.6263H6.18697C5.80802 21.6263 5.44829 21.4784 5.18597 21.221C4.92429 20.9642 4.78081 20.6199 4.78081 20.265C4.78081 20.2368 4.77961 20.2086 4.77722 20.1804ZM8.59385 9.82001C9.14614 9.82001 9.59385 10.2677 9.59385 10.82V17.9038C9.59385 18.4561 9.14614 18.9038 8.59385 18.9038C8.04157 18.9038 7.59385 18.4561 7.59385 17.9038V10.82C7.59385 10.2677 8.04157 9.82001 8.59385 9.82001ZM14.4061 10.82C14.4061 10.2677 13.9584 9.82001 13.4061 9.82001C12.8539 9.82001 12.4061 10.2677 12.4061 10.82V17.9038C12.4061 18.4561 12.8539 18.9038 13.4061 18.9038C13.9584 18.9038 14.4061 18.4561 14.4061 17.9038V10.82Z" fill="#25283D"/>
</svg>
