<svg width="32.5" height="28" viewBox="0 0 24 24" fill="none" xmlns="http://www.w3.org/2000/svg">
  <path fill-rule="evenodd" clip-rule="evenodd" d="M17.6401 1.09127C18.3388 0.392543 19.2865 0 20.2746 0C21.2628 0 22.2105 0.392543 22.9092 1.09127C23.6079 1.79 24.0005 2.73769 24.0005 3.72584C24.0005 4.714 23.6079 5.66168 22.9092 6.36041L21.0175 8.25209C21.0063 8.26453 20.9946 8.27676 20.9826 8.28876C20.9706 8.30076 20.9584 8.3124 20.946 8.32366L11.9869 17.2827C11.7994 17.4702 11.545 17.5756 11.2798 17.5756H7.42488C6.87259 17.5756 6.42488 17.1279 6.42488 16.5756V12.7207C6.42488 12.4555 6.53023 12.2011 6.71777 12.0136L15.7126 3.01874L17.6401 1.09127ZM16.4197 5.14006L8.42488 13.1349V15.5756H10.8656L18.8604 7.58077L16.4197 5.14006ZM20.2746 6.16655L17.8339 3.72584L19.0543 2.50549C19.3779 2.18183 19.8169 2 20.2746 2C20.7323 2 21.1713 2.18183 21.495 2.50549C21.8186 2.82915 22.0005 3.26812 22.0005 3.72584C22.0005 4.18357 21.8186 4.62254 21.495 4.9462L20.2746 6.16655ZM1.04561 6.3414C1.71511 5.67191 2.62314 5.29579 3.56995 5.29579H7.42487C7.97716 5.29579 8.42488 5.74351 8.42488 6.29579C8.42488 6.84807 7.97716 7.29579 7.42487 7.29579H3.56995C3.15357 7.29579 2.75425 7.46119 2.45983 7.75562C2.1654 8.05004 2 8.44936 2 8.86574V20.4305C2 20.8469 2.1654 21.2462 2.45983 21.5406C2.75425 21.8351 3.15357 22.0005 3.56995 22.0005H15.1347C15.5511 22.0005 15.9504 21.8351 16.2448 21.5406C16.5393 21.2462 16.7047 20.8469 16.7047 20.4305V16.5756C16.7047 16.0233 17.1524 15.5756 17.7047 15.5756C18.257 15.5756 18.7047 16.0233 18.7047 16.5756V20.4305C18.7047 21.3773 18.3286 22.2854 17.6591 22.9548C16.9896 23.6243 16.0815 24.0005 15.1347 24.0005H3.56995C2.62314 24.0005 1.71511 23.6243 1.04561 22.9548C0.376119 22.2854 0 21.3773 0 20.4305V8.86574C0 7.91893 0.376118 7.0109 1.04561 6.3414Z" fill="#25283D"/>
</svg>
